<?xml version="1.0" encoding="utf-8"?>
<!-- Generator: Adobe Illustrator 18.0.0, SVG Export Plug-In . SVG Version: 6.00 Build 0)  -->
<!DOCTYPE svg PUBLIC "-//W3C//DTD SVG 1.1//EN" "http://www.w3.org/Graphics/SVG/1.1/DTD/svg11.dtd">
<svg version="1.1" id="Layer_1" xmlns="http://www.w3.org/2000/svg" xmlns:xlink="http://www.w3.org/1999/xlink" x="0px" y="0px"
	 viewBox="0 0 612 792" enable-background="new 0 0 612 792" xml:space="preserve">
<path fill-rule="evenodd" clip-rule="evenodd" fill="#FFFFFF" d="M282.5,18.2c15.5,0,31.1,0,46.6,0c0,1,0,1.9,0,2.9
	c0.2,0,0.5,0,0.7,0c0,0.2,0,0.5,0,0.7c47.5,5.8,84.2,43,106.8,74.6c9.1,12.7,17.8,26.7,26.5,40.2c1.8,2.8,1.8,6.4,3.6,9.3
	c3,4.9,7.6,11.3,10,16.5c1,2.9,1.9,5.7,2.9,8.6c5.5,9,11.6,20.4,15.8,30.1c2.9,6.7,4.3,11.2,7.2,17.9c1.1,2.7,3.9,5.3,5,7.9
	c0.5,2.2,1,4.3,1.4,6.5c8.7,17.2,16.4,35.2,24.4,53.8c1.1,2.6,3.9,5.2,5,7.9c11.3,26.7,21,54.5,35.1,78.9c0.7,2.6,1.4,5.3,2.2,7.9
	c3.6,8.5,8.2,17.3,12.2,26.5c2.9,6.8,8.5,14.8,11.5,21.5c0.5,2.4,1,4.8,1.4,7.2c1.2,2.9,4.1,6.1,5,9.3c0.2,5.5,0.5,11,0.7,16.5
	c5.9,27.5-4.1,55.8-14.3,70.3c-7.2,10.1-17.2,18.4-27.2,25.8c-3.6,2.7-6.4,7.3-10,10c-11.1,8.4-21.2,17.4-32.3,25.8
	c-6.5,4.9-12,12.3-18.6,17.2c-31.7,23.6-59.1,52-91.1,75.3c-8.9,6.5-16.2,16.3-25.1,22.9c-16,11.9-29.9,25.3-45.9,37.3
	c-4.6,3.4-8.4,8.8-12.9,12.2c-4.9,3.7-18.1,11.7-18.6,18.6c-3.1,0-6.2,0-9.3,0c0-1.2,0-2.4,0-3.6c-8.6-5.4-15-14.1-22.9-20.1
	c-18.9-14.2-35.5-30.3-54.5-44.5c-1.4-1.7-2.9-3.3-4.3-5c-5.9-4.4-26.8-18.9-27.2-26.5c3.2-1.7,9.1-1.5,14.3-1.4
	c2.7-1.9,15-4.6,18.6-2.2c8.1,2.6,14.7,11.2,21.5,15.8c12.8,8.6,28.4,16.1,45.2,20.1c8.4,2,28.2,1.2,35.1-1.4
	c1.9-0.7,4.4-2.8,6.5-3.6c22.4-8.5,38.2-20.1,55.9-33c8.3-6,14.8-15.3,22.9-21.5c13.7-10.4,25.2-23.1,37.3-35.1
	c23-23,47.5-48.1,58.1-83.2c0.5-4.1,1-8.1,1.4-12.2c7.5-30.2,1.1-63-6.5-89.6c-0.2-2.6-0.5-5.3-0.7-7.9c-1.4-5-4.3-9.7-5.7-14.3
	c-0.5-3.1-1-6.2-1.4-9.3c-0.9-2.7-3.4-5.4-4.3-7.9c-0.7-3.6-1.4-7.2-2.2-10.8c-6.9-13.8-11.4-29.1-17.2-44.5c-1.1-2.9-3.8-5.8-5-8.6
	c-3.2-7.4-4.2-13.2-7.2-20.8c-1-2.7-3.9-5.4-5-7.9c-0.7-3.1-1.4-6.2-2.2-9.3c-0.6-1.2-2.9-3.1-3.6-4.3c-1.7-3.2-1.2-6.8-2.9-10
	c-3.1-5.9-8.1-13.1-10.8-19.4c-0.2-1.4-0.5-2.9-0.7-4.3c-17-32.8-38.4-62.9-71.7-79.6c-2.9-0.5-5.7-1-8.6-1.4
	c-4.2-1.3-8.9-3.8-13.6-5c-4.8-0.2-9.6-0.5-14.3-0.7c-7.3-1.6-19.2-2.4-26.5-0.7c-7.6,0.2-15.3,0.5-22.9,0.7
	c-5.7,1.3-11.2,3.4-15.8,5c-3.6,0.7-7.2,1.4-10.8,2.2c-29.8,13.1-45.2,37.2-61.7,63.8c-5.4,8.7-12.5,19-16.5,28.7
	c-0.2,2.4-0.5,4.8-0.7,7.2c-1.4,3.8-4.1,3-4.3,9.3c1.5-0.3,1.4-0.2,2.2-0.7c1.5-1.8,0.8-4.2,2.2-6.5c1.9-1.2,3.8-2.4,5.7-3.6
	c6.2-8.5,11.7-18.1,20.1-24.4c30.3-22.6,76.4-38.9,128.3-26.5c5,0.5,10,1,15.1,1.4c3.8,1.7,7.6,3.3,11.5,5c2.6,0.5,5.3,1,7.9,1.4
	c2,0.9,3.8,3.4,5.7,4.3c5.7,2.6,15.8,5,17.9,10.8c0.5,0.8,0.4,0.7,0.7,2.2c-14.8,16.8-39.5,31.7-58.1,45.2
	c-9.3,6.8-18.4,17.6-29.4,22.2c-10.3,4.3-19.6,0.8-29.4,1.4c-5.9,8.2-13.4,16.1-19.4,24.4c-2.7,3.7-2,8.6-7.9,9.3c0-0.5,0-1,0-1.4
	c-3-4.6,1-11.5,2.2-14.3c1.8-4.2,1.7-8.6,3.6-12.9c2-4.6,4.7-5.8,5-12.9c-1.1-0.4-1.7-0.6-3.6-0.7c-4.1,3.6-8.1,7.2-12.2,10.8
	c-6.3,8.2-14.1,15.3-20.1,23.7c-9.5,13.2-18.3,29.8-24.4,45.9c-0.5,3.3-1,6.7-1.4,10c-1.6,5.9-3.5,12.4-5,19.4
	c-0.9,4,0,9.8-0.7,12.9c-2.2,10.1,2.8,29.9,5,36.6c0.7,4.5,1.4,9.1,2.2,13.6c0.8,2.4,3.4,4.9,4.3,7.2c4,9.4,5.6,17.3,10.8,25.1
	c4.2,6.3,8.9,12.5,12.9,18.6c1.2,1.8,3,5.8,2.2,7.2c-0.8,0.5-0.7,0.4-2.2,0.7c-2.2-2.2-5.3-3.1-7.9-5c-3.4-2.5-6-6.8-9.3-9.3
	c-8.1-6.1-17.9-13.8-23.7-22.2c-10.7-15.7-15.2-36.5-22.9-55.2c-1.6-3.9-0.9-7.8-2.2-12.2c-1.3-4.4-3.7-9.1-5-13.6
	c-1.1-3.9-0.3-8.5-3.6-10c-2.2,0-4.3,0-6.5,0c-6.1,3.9-30.3,1.7-38,2.2c-0.8,1.5-1,1.3-1.4,3.6c5.2,3.1,11.9,6.3,12.2,14.3
	c-6.5,9-4.8,23.3-7.9,35.8c-16.2,65.7,23.8,113.7,53.8,145.6c1.2,0,2.4,0,3.6,0c10.9-10.9,19.8-25.3,33-33.7c2.6-1,5.3-1.9,7.9-2.9
	c7.7-4.6,25.6-7.6,36.6-2.9c9.3,4,15.8,10.1,21.5,17.9c1.8,2.4,5,3.6,7.2,5.7c3.8,0,7.6,0,11.5,0c2.5-0.9,3.7-4.3,5.7-5.7
	c5.3-2.2,10.5-4.3,15.8-6.5c5.3-1.5,14.6,0.8,18.6-2.2c1.1-0.8,1.8-3.3,2.9-4.3c5-5.1,14.7-12.3,23.7-10.8
	c4.2,7.7,3.8,18.8,5.7,28.7c3.2,1.7,9.1,1.5,14.3,1.4c6.4,3.8,21-1.3,25.8,2.2c0.5,0.8,0.4,0.7,0.7,2.2c-8.3,8.2-15,22-30.8,22.2
	c-3.9-3-10.4-2.9-14.3-5.7c-3.3-2.4-4.6-7.7-8.6-9.3c-2.7-1.4-6.1,0.8-8.6,1.4c-5,1.3-15.2-2.2-16.5-5c0-2.4,0-4.8,0-7.2
	c-1.7-0.9-2-1.3-5-1.4c-3.3,4.2-10.5,5.8-15.1,8.6c0.5,1.3,0.1,0.7,0.7,1.4c0.9,1.8-0.3,0.5,1.4,1.4c11.4,7.4,52.2,8.2,48.8,25.8
	c-8.7,5.2-26.6,10.3-39.4,5c-5.7-2.3-7.6-7.8-15.1-8.6c0,2.9,0,5.7,0,8.6c-1.9,1-3,1.4-6.5,1.4c-1.3-1-13.1-7.5-14.3-7.9
	c-4.5,0-9.1,0-13.6,0c-1.8-0.4-4.7-2.4-7.9-1.4c-6.4,2-12.2,9.5-17.9,12.9c-6.2,1.7-12.4,3.3-18.6,5c-19.3,4.7-32.9-5.9-48.8,3.6
	c-8.2,4.9-18.4,13.7-23.7,21.5c-2.3,3.3-1.8,6.9-5.7,8.6c-0.8,0.6-1.2,0.6-2.9,0.7c-0.3-16.5,12.3-25.3,12.9-41.6
	c-14.9-13.8-30.3-27.1-46.6-39.4c-1.7-1.9-3.3-3.8-5-5.7c-9.3-7.1-17.9-14.5-27.2-21.5c-3.4-2.5-6-6.8-9.3-9.3
	c-19.3-14.6-38.9-32.2-46.6-58.1c-2.2-7.5-2.5-34.9-0.7-43c0.2-5.5,0.5-11,0.7-16.5c2.1-7.2,7.5-15.9,10.8-22.2
	c1.4-2.8,0.7-5.8,2.2-8.6c5.4-10.5,12.5-22.6,17.2-33.7c0.5-2.2,1-4.3,1.4-6.5c2.6-5.7,7.5-13,10-18.6c0.5-2.2,1-4.3,1.4-6.5
	c1.1-2.7,3.9-5.3,5-7.9c15-35.2,28.9-68.5,44.5-103.2c0.8-1.9,3.4-4,4.3-5.7c0.5-2.2,1-4.3,1.4-6.5c3-6.9,8.5-14.6,11.5-21.5
	c8.9-20.8,18.1-41.1,29.4-59.5c1.8-2.9,1.8-6.5,3.6-9.3c6.2-9.7,11.4-20.3,17.9-30.1c7.1-10.6,15.9-20.6,23.7-30.8
	c4-5.3,10.4-10.3,15.8-14.3c1.7-1.9,3.3-3.8,5-5.7c7.9-5.9,16.2-11.9,24.4-17.2c2.8-1.8,6.4-1.8,9.3-3.6c1.8-1.1,4.3-3.5,6.5-4.3
	c1.9-0.2,3.8-0.5,5.7-0.7c3-1.1,6.1-4,9.3-5c5.6-1.7,11.8-0.5,15.8-3.6C282.4,20.2,282.3,19.9,282.5,18.2z"/>
<path fill-rule="evenodd" clip-rule="evenodd" fill="#FFFFFF" d="M398.7,258.4c1.2,0,2.4,0,3.6,0c5.6,8,13.3,15.1,18.6,23.7
	c8.1,13,13.6,29.7,18.6,45.2c0.7,5.3,1.4,10.5,2.2,15.8c2.1,8.2,2.9,17.8,5,27.2c0,6.2,0,12.4,0,18.6c1.7,7.6,1.7,22.5,0,30.1
	c-3,13.4,3.2,29.3,0,43.7c-1.3,5.9,0,13.8-1.4,20.1c-3,13.1-3.6,28.5-6.5,41.6c-7.6,4.8-12.2,9.9-25.1,10c-1.2-1.3-2.9-2.5-4.3-3.6
	c-5.9-14.9-3.6-33.8-3.6-51.6c-1.7-0.9-2-1.3-5-1.4c-9.2,9.1-19.3,16.9-28.7,25.8c-17.1,16.3-31.7,33.8-58.8,40.2
	c-11.1,2.6-29-2-35.8-5c-8.3-3.7-15.2-12.6-22.2-17.9c-11.4-8.6-20.1-19.6-30.8-28.7c-4.7-4-11.6-7.8-15.1-12.9
	c-2.1-3.1-5.1-11-6.5-14.3c-0.7-4.3-1.4-8.6-2.2-12.9c-1.9-6.5-12.5-40.6,0.7-41.6c3.7,4,10.8,7.1,18.6,5
	c13.8-3.6,33.9-10.6,44.5-17.9c9.8-6.8,16.7-20.6,21.5-32.3c1.5-3.7,0.8-8.3,2.9-11.5c4.5-7,13-11.3,17.9-17.9c3-4,4.1-9.4,7.2-13.6
	c5.3-7.3,14.8-11.9,22.2-17.2c15.1-10.9,29.8-23.9,45.2-34.4C387.4,266.5,393.9,263.5,398.7,258.4z"/>
<path fill-rule="evenodd" clip-rule="evenodd" fill="#FFFFFF" d="M154.2,312.2c0.7,0,1.4,0,2.2,0c0-0.5,0-1,0-1.4
	c0.8-1.2,0.8-3.5,0.7-5.7c-0.2,0-0.5,0-0.7,0c0-0.2,0-0.5,0-0.7c-1.3,0.5-0.7,0.1-1.4,0.7C153.9,306.4,154.1,309.7,154.2,312.2z"/>
<path fill-rule="evenodd" clip-rule="evenodd" fill="#FFFFFF" d="M150.6,316.5c-4.2,4.7-3.1,6.6-5.7,12.9c-0.9,2.2-3.4,4.3-4.3,6.5
	c-5.3,12.6-8.1,24.4-12.9,37.3c-2.3,6.2-7.1,11.4-5.7,19.4c1.4,0,2.9,0,4.3,0c2-3.2,5.2-6.2,7.2-9.3c4.3-6.8,5.2-14.2,8.6-22.2
	c5.4-12.8,10.6-26,10.8-43.7C152,316.9,151.3,316.7,150.6,316.5z"/>
<path fill-rule="evenodd" clip-rule="evenodd" fill="#FFFFFF" d="M392.2,510c2.4,0.1,3.2,0.3,5,0.7c6.3,23.2-4.5,38.3-9.3,54.5
	c-2.4,8,0.3,18.1-7.2,20.8c-5.9,5.8-21.7,1.5-23.7-4.3c-3-3.9-1.6-9.9-2.9-15.8c-3.8-17.6,11.3-36.9,20.8-43.7
	C380.4,518.3,388.4,515.5,392.2,510z"/>
<path fill-rule="evenodd" clip-rule="evenodd" fill="#FFFFFF" d="M428.1,538.7c1.4,0,2.9,0,4.3,0c0.2,0.7,0.5,1.4,0.7,2.2
	c2.6,4.3-3.4,9.9-5,12.9c-4.4,8.2-18.4,31.6-29.4,29.4c-1.8-3.1-4.1-6.8-5-10.8c-1.8-7.8,8.1-23.9,12.2-26.5
	C412.3,541.7,422.2,543.2,428.1,538.7z"/>
</svg>
