<?xml version="1.0" encoding="utf-8"?>
<!-- Generator: Adobe Illustrator 18.0.0, SVG Export Plug-In . SVG Version: 6.00 Build 0)  -->
<!DOCTYPE svg PUBLIC "-//W3C//DTD SVG 1.1//EN" "http://www.w3.org/Graphics/SVG/1.1/DTD/svg11.dtd">
<svg version="1.1" id="Layer_1" xmlns="http://www.w3.org/2000/svg" xmlns:xlink="http://www.w3.org/1999/xlink" x="0px" y="0px"
	 viewBox="0 0 612 792" enable-background="new 0 0 612 792" xml:space="preserve">
<path fill-rule="evenodd" clip-rule="evenodd" fill="#FFFFFF" d="M464.9,67.2c9.7-0.2,18-2,28.7-2.1c1.6,2.2,4.8,5.5,7,7
	c2.3,0.9,4.7,1.9,7,2.8c0,2.3,0,4.7,0,7c-3.3,5.7,4.9,11.1,6.3,14.7c0,2.8,0,5.6,0,8.4c0,18.8-4.4,34.1-7.7,48.4
	c-1,4.4,2.1,6.4,1.4,8.4c-1.2,5-5.6,7.6-7,11.9c0.2,2.3,0.5,4.7,0.7,7c-0.2,0-0.5,0-0.7,0c-1.6,4.2-4.3,5.9-6.3,9.1
	c-0.7,1.2,0.2,3.6-0.7,4.9c-0.7,0.9-2,0.5-3.5,0.7c-1.5-2.6-4.1-8.6-7-9.8c-1-0.7-2.3-0.7-4.2-0.7c-3.6,6.6-2.4,10.6-4.9,18.2
	c-1.4,4.2-4.4,9-5.6,13.3c0,2.3,0,4.7,0,7c-1.4,5.7-4.3,17.3-9.1,19.6c0,0.2,0,0.5,0,0.7c-0.2,0-0.5,0-0.7,0c0-0.2,0-0.5,0-0.7
	c-4.6-1.7-4.1-7.2-7.7-9.8c-1.3-1-2.3-1.3-3.5-0.7c-2.8,0.9-2.9,1.9-2.8,5.6c2.5,3.6,2.7,21.1,0,24.5c-1.4,0.8-2.3,0.1-3.5,0.7
	c-0.7,1.3-0.9,10.1-1.4,12.6c-1.7,1.1-1.6,1.6-4.2,2.1c-3.3-5.5-8.2-8.9-13.3-12.6c-13.8-10-41.3-30.4-63.1-14.7
	c-20.1,14.4-29,47.5-35.8,75.7c-3.3,13.9,1.2,36.2,4.2,47.7c0.7,5.4,1.4,10.8,2.1,16.1c4.9,22.2,9.8,44.4,14.7,66.6
	c3.3,11,12.1,29.4,8.4,45.6c-2.9,12.6-3.6,25.6-8.4,36.5c-1.7,3.7-6.4,5.7-7.7,9.1c-0.2,4.2-0.5,8.4-0.7,12.6
	c-2.7,12.1,3.7,33.8-0.7,46.3c-2.6,7.4-7.6,15.5-11.2,22.4c-5.6,10.7-9.3,22.7-16.1,32.3c-4.9,6.8-12.3,13.9-18.9,18.9
	c-2.6,3-5.1,6.1-7.7,9.1c-12.6,9.6-24.9,20.5-38.6,28.7c-4.8,2.9-10,3.4-15.4,5.6c-14.5,6-29.8,10.2-45.6,15.4
	c-17.3,5.8-35.5,10.2-54,16.1c-10.7,3.5-23.4,7.8-36.5,4.9c-0.9-1.6-1.1-1.6-1.4-4.2c13.5-3.1,28.9-13.6,40-20.3
	c6.3-3.8,14.6-5.5,19.6-10.5c-0.2,0-0.5,0-0.7,0c0-0.2,0-0.5,0-0.7c-10.9-0.5-22.6-4.2-28.7-9.8c0-0.5,0-0.9,0-1.4
	c0.2,0,0.5,0,0.7,0c0-0.2,0-0.5,0-0.7c9.8-0.2,17.8-7.2,25.2-10.5c31.1-13.8,53.2-34,75-56.8c-0.5-2.6-0.9-5.1-1.4-7.7
	c-1.2-0.4-0.7-0.1-1.4-0.7c-5.4,1.6-9.5,5.6-15.4,7c-3,0.7-7.9-0.3-9.8-0.7c-4.2,0-8.4,0-12.6,0c-6-1.3-14.5-0.8-20.3-2.1
	c-8.4-1.9-15.7-0.4-23.1-2.8c-27.3-8.9-53.5-21.3-75-36.5c-7.1-5-12.8-12.4-19.6-17.5c-10-7.5-19.1-17.4-26.6-27.3
	c-4.4-5.8-11-8.8-11.2-18.9c1.1-0.4,1.7-0.6,3.5-0.7c3.2,4.4,9.3,6.2,14,9.1c9.6,5.9,24.9,17.7,37.9,18.9c0-0.5,0-0.9,0-1.4
	c-2.8-4.2-9.4-33.8-8.4-39.3c1.1-0.4,1.7-0.6,3.5-0.7c9.2,15.4,31.7,35,49.1,42.1c8,3.2,16.2,3.3,25.2,5.6c8.4,2.1,29.8,5.4,40,2.1
	c21.1-6.8,42.6-18.3,54-35.1c3.3-4.9,4.6-10.3,7.7-15.4c4.5-7.4,10-15.4,12.6-24.5c4.8-16.7-0.6-40-4.2-54
	c-5.6-21.9-16.4-36.1-24.5-54.7c-8.3-19-14.7-36.2-19.6-58.9c-1.5-6.9-0.6-24.3,0.7-30.2c0.2-5.6,0.5-11.2,0.7-16.8
	c2.4-10.1,3.8-22.3,7.7-31.6c4.4-10.4,10.5-20.9,16.1-30.2c4.5-7.3,7.1-14.9,11.9-21.7c4.5-6.5,11.6-11.2,16.1-17.5
	c6.7-9.3,12.1-19,18.9-28c6.6-8.8,16.1-16.1,23.8-23.8c17-17,33.6-33.3,53.3-47.7c7.8-5.7,14.7-13.3,22.4-18.9
	c9.2-6.8,18.1-12.7,28-18.9c6.1-3.9,12.9-11.3,21-12.6c3.5-0.6,5.2,1.5,8.4,1.4c1.2-1.9,2.8-3.3,4.2-4.9c5.7,0,11.4,0.3,14.7,2.8
	c1.2,0.9,1.2,3,2.1,4.2C452,46.2,463.2,53.2,464.9,67.2z"/>
<path fill-rule="evenodd" clip-rule="evenodd" fill="#FFFFFF" d="M574.3,166.8c0.9,0,1.9,0,2.8,0c4.1,7.3,11.4,14.7,11.9,24.5
	c-3.9,1.4-18.5,15.5-21,18.9c-3,4.2-2.2,8.6-9.1,9.1c-1.5-1.3-6.8-3.3-7.7-2.8c-4.5,4.4-10.5,17.7-16.8,18.9
	c-4.8-4.8-12-8-13.3-16.1c2.6-2.8,3.4-7.3,5.6-10.5c4.6-6.6,13.3-17,19.6-21.7c6.6-5,12.9-10.7,19.6-15.4
	C568.6,169.8,571.9,169,574.3,166.8z"/>
<path fill-rule="evenodd" clip-rule="evenodd" fill="#FFFFFF" d="M603,226.4c1.2,0,2.3,0,3.5,0c0,0.5,0,0.9,0,1.4
	c2.6,3.3,4.7,25.6,1.4,30.2c-2.9,2.4-6.9,3.3-9.8,5.6c-5.6,4.4,1,8.5-11.2,8.4c-1.8-2.8-3.9-4.7-8.4-4.9c-3,3.5-6.1,7-9.1,10.5
	c-2.6,0-5.1,0-7.7,0c-2.2-5.6-6.6-10.4-7.7-16.1c2-1.5,3-4.1,4.9-5.6c7.2-5.4,14.3-11.2,21.7-16.1C587,235.4,597.7,231.5,603,226.4z
	"/>
<path fill-rule="evenodd" clip-rule="evenodd" fill="#FFFFFF" d="M352.7,333c8,1.1,12.6,8.1,18.2,11.9c-0.4,1.2-0.1,0.7-0.7,1.4
	c-1.9,5.7-7.5,9.8-10.5,14.7c-5-2-11.1-3.7-16.8-4.9c-6.1-1.3-10,3.7-12.6,2.8c-2.6-2.9-1-9-0.7-13.3c5.3-1.6,10.2-6.4,14.7-9.1
	C346.8,334.9,350.4,334.8,352.7,333z"/>
<path fill-rule="evenodd" clip-rule="evenodd" fill="#FFFFFF" d="M540.6,333c7.5,0.8,25.3,10.1,25.2,18.2c1.7,2.4,0.2,6.4-0.7,8.4
	c-3.8-1.1-6.8-4.8-12.6-3.5c-3,0.7-16.6,4.4-16.8,4.2c-2.7-1.9-10.5-11.8-11.2-15.4c2.9-1.9,4.9-5.1,7.7-7
	C534.9,336,538.3,335.2,540.6,333z"/>
<path fill-rule="evenodd" clip-rule="evenodd" fill="#FFFFFF" d="M365.3,364.5c0.7-5.6,6.5-15.9,11.2-17.5c5.6,2.3,11.2,4.7,16.8,7
	c3.4,2.1,7.2,4.6,10.5,7c2.3,2.6,4.7,5.1,7,7.7c6.1,4.1,15.2,5.6,16.1,14.7c-2.1,1.3-2.5,2.3-5.6,2.8c-5.7-5.3-29.7-18.1-37.9-20.3
	c-4.4,0-8.9,0-13.3,0C368.9,365.6,367.3,364.8,365.3,364.5z"/>
<path fill-rule="evenodd" clip-rule="evenodd" fill="#FFFFFF" d="M518.9,347c6,2.3,7.1,11.1,11.2,15.4c-0.4,1.2-0.1,0.7-0.7,1.4
	c-4.2,3.6-11,0.3-17.5,2.1c-9.4,2.5-21.4,9.8-29.5,14.7c-2.3,1.4-5.6,5-8.4,5.6c-3.1,0.6-4.6-2.4-6.3-3.5c0.2-0.7,0.5-1.4,0.7-2.1
	c2.5-1.8,3.8-5.2,6.3-7c3.5-1.9,7-3.7,10.5-5.6c4.3-3.1,7.3-8.3,11.9-11.2C502.9,353.2,514.1,350.8,518.9,347z"/>
<path fill-rule="evenodd" clip-rule="evenodd" fill="#FFFFFF" d="M557.4,404.5c1.2,0,2.3,0,3.5,0c0.5,1.3,0.7,2.7,0.7,4.9
	c-0.9,0.5-1.5,0.8-2.1,1.4c-1.2-0.4-0.7-0.1-1.4-0.7c-1.7-0.9-0.5,0.3-1.4-1.4C555.8,407,556.6,406.3,557.4,404.5z"/>
<path fill-rule="evenodd" clip-rule="evenodd" fill="#FFFFFF" d="M395.5,490.8c3.2,0.7,8.1,1.2,11.2,2.8c3.5,1.8,5.4,5.8,9.8,7
	c9.5,2.6,15.8-5.2,23.1-6.3c2.3,2.4,6.4,5.9,9.8,7c2-3.1,5.9-6.6,10.5-7c4.1,3.8,17.5,9,24.5,4.9c3.2-1.8,12.6-10.7,17.5-7.7
	c0.6,0.8,0.5,1.2,0.7,2.8c-4.3,4.2-7.1,10.4-11.9,14c-10,7.5-22,12.2-36.5,15.4c-18.8,4.2-42.7-11.1-50.5-18.9
	C400.5,501.4,393.7,496.9,395.5,490.8z"/>
</svg>
